<?xml version="1.0" encoding="utf-8"?>
<!-- Generator: Adobe Illustrator 18.0.0, SVG Export Plug-In . SVG Version: 6.00 Build 0)  -->
<!DOCTYPE svg PUBLIC "-//W3C//DTD SVG 1.1//EN" "http://www.w3.org/Graphics/SVG/1.1/DTD/svg11.dtd">
<svg version="1.1" id="Layer_1" xmlns="http://www.w3.org/2000/svg" xmlns:xlink="http://www.w3.org/1999/xlink" x="0px" y="0px"
	 viewBox="0 0 4500 2000" enable-background="new 0 0 4500 2000" xml:space="preserve">
<g id="g312">
	<g id="XMLID_6_">
		<g id="g315">
			<polygon id="polygon317" fill="#A4C439" points="2798.5,1588.5 2798.5,1631.3 1602.6,1660.9 1602.6,1616.2 			"/>
			<path id="path319" fill="#A4C439" d="M2798.5,1631.3v90.4c-762.8-133.2-1196.1,71.1-1196.1,71.1v-131.6L2798.5,1631.3
				L2798.5,1631.3z"/>
			<polygon id="polygon321" fill="#A4C439" points="4184.4,1582.8 4365.9,1585.7 4397.7,1660.9 3578,1653.2 3578,1573.4 
				3756.5,1576.3 3784.5,1577 3884.6,1578.3 3908.1,1578.3 4001.4,1579.9 4054.8,1580.8 4134.9,1582.1 			"/>
			<polygon id="polygon323" fill="#A4C439" points="3578,1653.2 3578,1907.7 2941,1907.7 3448.3,1554.8 3578,1554.8 3578,1573.4 			
				"/>
			<polygon id="polygon325" fill="#A4C439" points="3448.3,1468.5 3448.3,1554.8 3133.7,1573.4 3422.3,1468.5 			"/>
			<polygon id="polygon327" fill="#A4C439" points="3448.3,1554.8 2941,1907.7 2941,1750 2941,1627.8 2941,1585 3044.3,1578.9 
				3133.7,1573.4 			"/>
			<polygon id="polygon329" fill="#A4C439" points="3422.3,1245 3422.3,1468.5 3133.7,1464.4 3133.7,1573.4 3044.3,1578.9 
				3043.9,1576.3 3041,1288.7 			"/>
			<polygon id="polygon331" fill="#A4C439" points="3422.3,991.1 3422.3,1189.3 3056.8,1189.3 3040.1,1195.1 3038.1,1042.6 			"/>
			<polygon id="polygon333" fill="#A4C439" points="3422.3,758.8 3422.3,935.8 3043.9,935.8 3037.2,937.7 3035.2,758.5 
				3043.9,756.9 3422.3,756.9 			"/>
			<polygon id="polygon335" fill="#FAE700" points="3422.3,721.5 3422.3,756.9 3043.9,756.9 3035.2,758.5 3034.6,721.5 
				3034.6,705.1 3043.9,703.2 3422.3,703.2 			"/>
			<polygon id="polygon337" fill="#FAE700" points="3422.3,493.7 3422.3,525.6 3032.7,525.6 3032.3,493.7 			"/>
			<polygon id="polygon339" fill="#A4C439" points="3422.3,346.1 3422.3,493.7 3032.3,493.7 3030.7,363.5 3133.7,346.1 
				3151.7,410.7 3188.4,410.7 3168.8,346.1 3200.6,296.2 3263.7,273 3301.9,299.1 3353.1,153 			"/>
			<polygon id="polygon341" fill="#FAE700" points="3422.3,935.8 3037.5,979.5 3037.2,937.7 3043.9,935.8 			"/>
			<polygon id="polygon343" fill="#A4C439" points="3422.3,991.1 3038.1,1042.6 3037.5,993.1 3042,991.1 			"/>
			<polygon id="polygon345" fill="#FAE700" points="3422.3,1189.3 3040.4,1237.6 3040.1,1195.1 3056.8,1189.3 			"/>
			<polygon id="polygon347" fill="#A4C439" points="3422.3,1245 3041,1288.7 3040.4,1249.8 3054.9,1245 			"/>
			<polygon id="polygon349" fill="#A4C439" points="3422.3,1468.5 3133.7,1573.4 3133.7,1464.4 			"/>
			<path id="path351" fill="#A4C439" d="M3186.1,84.2l77.5,188.8l-34.7-21.6l-28.3,44.7l-66.9,24.5c0.3-60.2,2.9-207.8,6.8-216.8
				c4.8-11.6-7.1-54.4-7.1-54.4h52.4L3186.1,84.2L3186.1,84.2z"/>
			<polygon id="polygon353" fill="#A4C439" points="3263.7,273 3200.6,296.2 3228.9,251.5 			"/>
			<path id="path355" fill="#A4C439" d="M3200.6,296.2l-31.9,49.9l19.6,64.3h-37l-17.7-64.3c0,0,0-9.7,0.3-25.4L3200.6,296.2
				L3200.6,296.2z"/>
			<path id="path357" fill="#A4C439" d="M3127.6,323.2l6.4-2.3c0,15.8-0.3,25.4-0.3,25.4L3127.6,323.2L3127.6,323.2z"/>
			<path id="path359" fill="#A4C439" d="M3133.7,49.5c0,0,11.9,43.1,7.1,54.4c-3.9,9-6.4,156.4-6.8,216.8l-6.4,2.3l-39.2-152.8h15.8
				v-41.8L3133.7,49.5L3133.7,49.5z"/>
			<polygon id="polygon361" fill="#A4C439" points="3133.7,49.5 3103.8,128 3103.8,122.5 3103.8,75.5 			"/>
			<polygon id="polygon363" fill="#A4C439" points="3088.6,169.8 3127.6,323.2 2888.9,410.7 2888.9,385 2945.2,230.3 2979.3,337.7 
				3005.3,251.5 3035.2,312 3074.2,169.8 			"/>
			<polygon id="polygon365" fill="#A4C439" points="3103.8,128 3103.8,169.8 3088.6,169.8 			"/>
			<polygon id="polygon367" fill="#FAE700" points="3040.4,1237.6 3422.3,1189.3 3422.3,1245 3054.9,1245 3040.4,1249.8 			"/>
			<polygon id="polygon369" fill="#FAE700" points="3037.5,979.5 3422.3,935.8 3422.3,991.1 3042,991.1 3037.5,993.1 			"/>
			<polygon id="polygon371" fill="#A4C439" points="3040.4,1249.8 3041,1288.7 2859.3,1309.6 			"/>
			<polygon id="polygon373" fill="#FAE700" points="3040.4,1237.6 3040.4,1249.8 2859.3,1309.6 2859.3,1260.4 			"/>
			<polygon id="polygon375" fill="#FAE700" points="3040.1,1195.1 3040.4,1237.6 2859.3,1260.4 			"/>
			<polygon id="polygon377" fill="#A4C439" points="3038.1,1042.6 3040.1,1195.1 2859.3,1260.4 2859.3,1066.7 			"/>
			<polygon id="polygon379" fill="#A4C439" points="3037.5,993.1 3038.1,1042.6 2859.3,1066.7 			"/>
			<polygon id="polygon381" fill="#FAE700" points="3037.5,979.5 3037.5,993.1 2859.3,1066.7 2859.3,999.8 			"/>
			<polygon id="polygon383" fill="#FAE700" points="3037.2,937.7 3037.5,979.5 2859.3,999.8 			"/>
			<polygon id="polygon385" fill="#A4C439" points="3035.2,758.5 3037.2,937.7 2859.3,999.8 2859.3,784.9 			"/>
			<polygon id="polygon387" fill="#A4C439" points="3034.6,721.5 3035.2,758.5 2859.3,784.9 2872.1,762.7 3026.6,758.8 
				3026.6,721.8 			"/>
			<polygon id="polygon389" fill="#A4C439" points="3043.9,703.2 3034.6,705.1 3034.6,703.2 3033.6,637.2 3032.7,525.6 
				3422.3,525.6 3422.3,625.7 3422.3,703.2 			"/>
			<polygon id="polygon391" fill="#A4C439" points="3034.6,703.2 3034.6,705.1 3026.6,707 3025.9,707 2888.9,710.3 2888.9,707 
				2941,706.1 			"/>
			<polygon id="polygon393" fill="#A4C439" points="3033.6,637.2 3034.6,703.2 2983.1,672.3 3030.7,637.2 			"/>
			<polygon id="polygon395" fill="#A4C439" points="3034.6,703.2 2941,706.1 2941,703.2 2983.1,672.3 			"/>
			<polygon id="polygon397" fill="#A4C439" points="3032.7,525.6 3033.6,637.2 3030.7,637.2 2888.9,640.4 2888.9,594.4 
				3030.7,525.6 			"/>
			<polygon id="polygon399" fill="#FAE700" points="3032.3,493.7 3032.7,525.6 3030.7,525.6 2888.9,594.4 2888.9,562.6 
				3030.7,493.7 			"/>
			<polygon id="polygon401" fill="#A4C439" points="3030.7,363.5 3032.3,493.7 3030.7,493.7 2888.9,562.6 2888.9,410.7 
				2983.8,410.7 			"/>
			<path id="path403" fill="#FAE700" d="M2967.7,1309.6c73,1.6,63.1,58.6,63.1,58.6v204.9h-141.9v-204.9
				C2888.9,1368.2,2894.7,1308,2967.7,1309.6L2967.7,1309.6z"/>
			<polygon id="polygon405" fill="#A4C439" points="3030.7,363.5 2983.8,410.7 2888.9,410.7 3127.6,323.2 3133.7,346.1 			"/>
			<polygon id="polygon407" fill="#A4C439" points="3030.7,637.2 2983.1,672.3 2929.7,639.5 2897.5,668.4 2888.9,661.7 
				2888.9,640.4 			"/>
			<polygon id="polygon409" fill="#A4C439" points="3034.6,705.1 3034.6,721.5 3034.6,721.5 3026.6,721.8 3026.6,707 			"/>
			<polygon id="polygon411" fill="#A4C439" points="3026.6,721.8 3026.6,758.8 2872.1,762.7 2888.9,733.4 2934.2,724.7 			"/>
			<polygon id="polygon413" fill="#A4C439" points="3026.6,707 3026.6,721.8 2934.2,724.7 3025.9,707 			"/>
			<polygon id="polygon415" fill="#A4C439" points="3025.9,707 2934.2,724.7 2888.9,726.3 2888.9,710.3 			"/>
			<polygon id="polygon417" fill="#A4C439" points="2929.7,639.5 2983.1,672.3 2941,703.2 2897.5,668.4 			"/>
			<path id="path419" fill="#A4C439" d="M3030.7,1368.5c0,0,10.3-57.3-63.1-58.6c-73-1.6-78.8,58.6-78.8,58.6v204.9h141.9V1368.5
				L3030.7,1368.5z M3041,1288.7l2.9,287.6v2.3l-103.3,6.4l-141.9-8.7l60.2-4.2v-262.5L3041,1288.7L3041,1288.7z"/>
			<polygon id="polygon421" fill="#A4C439" points="2941,703.2 2941,706.1 2888.9,707 2888.9,676.2 2897.5,668.4 			"/>
			<path id="path423" fill="#A4C439" d="M2941,1750v157.6l-141.9-60.2v-125.5C2844.8,1729.8,2892.4,1738.8,2941,1750L2941,1750z"/>
			<path id="path425" fill="#A4C439" d="M2941,1627.8v121.6c-48.6-10.6-95.9-19.6-141.9-28V1631L2941,1627.8L2941,1627.8z"/>
			<polygon id="polygon427" fill="#A4C439" points="2941,1585 2941,1627.8 2798.5,1631.3 2798.5,1588.5 			"/>
			<polygon id="polygon429" fill="#A4C439" points="2941,1585 2798.5,1588.5 2798.5,1576.3 			"/>
			<polygon id="polygon431" fill="#A4C439" points="2934.2,724.7 2888.9,733.4 2888.9,726.3 			"/>
			<polygon id="polygon433" fill="#A4C439" points="2897.5,668.4 2888.9,676.2 2888.9,661.7 			"/>
			<polygon id="polygon435" fill="#A4C439" points="2888.9,726.3 2888.9,733.4 2872.1,762.7 1447.3,800.3 1447.3,770.4 			"/>
			<polygon id="polygon437" fill="#A4C439" points="2888.9,640.4 2888.9,661.7 2864.1,641.4 			"/>
			<polygon id="polygon439" fill="#A4C439" points="2864.1,641.4 2855.4,641.4 2859.3,637.2 			"/>
			<polygon id="polygon441" fill="#A4C439" points="2859.3,703.2 2888.9,676.2 2888.9,707 2799.1,709.6 2798.5,707 2827.7,673.3 			
				"/>
			<polygon id="polygon443" fill="#A4C439" points="2798.5,1576.3 2798.5,1588.5 1602.6,1616.2 1602.6,1597.6 			"/>
			<polygon id="polygon445" fill="#A4C439" points="2737,644.3 2855.4,641.4 2827.7,673.3 2798.5,645.9 2767.3,674.9 			"/>
			<polygon id="polygon447" fill="#A4C439" points="2737,644.3 2737,644.3 2705.2,674.9 2672.7,645.9 2672.7,645.9 			"/>
			<polygon id="polygon449" fill="#A4C439" points="2737,703.2 2767.3,674.9 2798.5,707 2799.1,709.6 2601.2,715.1 2640.5,677.1 
				2672.7,707 2705.2,674.9 			"/>
			<polygon id="polygon451" fill="#A4C439" points="2601.2,715.1 2599,717.7 2596.4,715.1 			"/>
			<polygon id="polygon453" fill="#A4C439" points="2533.4,707 2565.2,684.2 2596.4,715.1 2451.3,718.9 2497,682.3 			"/>
			<polygon id="polygon455" fill="#A4C439" points="2611.5,651.1 2565.2,684.2 2533.4,653 2497,682.3 2449.1,651.1 2672.7,645.9 
				2672.7,645.9 2640.5,677.1 			"/>
			<polygon id="polygon457" fill="#A4C439" points="2451.3,718.9 2449.1,721.5 2445.9,718.9 			"/>
			<polygon id="polygon459" fill="#A4C439" points="2449.1,651.1 2399.9,686.8 2351.6,653 			"/>
			<polygon id="polygon461" fill="#A4C439" points="2445.9,718.9 2351.6,721.8 2351.6,721.5 2399.9,686.8 			"/>
			<polygon id="polygon463" fill="#A4C439" points="2351.6,721.5 2351.6,721.8 2294.7,723.1 2294.7,721.5 2323.9,686.1 			"/>
			<polygon id="polygon465" fill="#A4C439" points="2351.6,653 2323.9,686.1 2298.8,654.6 			"/>
			<polygon id="polygon467" fill="#A4C439" points="2298.8,654.6 2260.5,691 2221.9,656.5 			"/>
			<polygon id="polygon469" fill="#A4C439" points="2294.7,721.5 2294.7,723.1 2223.9,725.1 2260.5,691 			"/>
			<polygon id="polygon471" fill="#A4C439" points="2223.9,725.1 2221.9,726.7 2220,725.1 			"/>
			<polygon id="polygon473" fill="#A4C439" points="2221.9,656.5 2176.6,692.6 2134.8,661.7 2096.5,690 2053.7,660.1 			"/>
			<polygon id="polygon475" fill="#A4C439" points="2140.5,721.5 2176.6,692.6 2220,725.1 1981.3,731.8 2021.8,691.9 2053.7,721.5 
				2096.5,690 			"/>
			<polygon id="polygon477" fill="#A4C439" points="2053.7,660.1 2021.8,691.9 1989,661.7 			"/>
			<path id="polygon479" fill="#A4C439" d="M1989,661.7L1989,661.7L1989,661.7z"/>
			<polygon id="polygon481" fill="#A4C439" points="1989,661.7 1941.1,697.4 1903.1,663.6 			"/>
			<polygon id="polygon483" fill="#A4C439" points="1981.3,731.8 1980.7,732.8 1979.4,731.8 			"/>
			<polygon id="polygon485" fill="#A4C439" points="1941.1,697.4 1979.4,731.8 1891.5,734.4 			"/>
			<polygon id="polygon487" fill="#A4C439" points="1891.5,734.4 1890.3,735.4 1889.6,734.4 			"/>
			<polygon id="polygon489" fill="#A4C439" points="1861.3,704.1 1889.6,734.4 1828.2,736.3 			"/>
			<polygon id="polygon491" fill="#A4C439" points="1828.2,736.3 1827.5,736.6 1826.6,736.3 			"/>
			<polygon id="polygon493" fill="#A4C439" points="1826.6,736.3 1761.6,737.6 1795.3,702.5 			"/>
			<polygon id="polygon495" fill="#A4C439" points="1696.9,668.4 1903.1,663.6 1861.3,704.1 1827.5,668.4 1795.3,702.5 
				1769.9,674.9 1731,705.4 			"/>
			<polygon id="polygon497" fill="#A4C439" points="1761.6,737.6 1761.2,738.3 1760.6,737.6 			"/>
			<polygon id="polygon499" fill="#A4C439" points="1760.6,737.6 1687.6,739.5 1731,705.4 			"/>
			<polygon id="polygon501" fill="#A4C439" points="1696.9,668.4 1648.6,706.4 1623.6,674.9 1574,712.8 1537.7,674.9 1491,711.5 
				1447.3,678.1 1447.3,674.9 			"/>
			<polygon id="polygon503" fill="#A4C439" points="1687.6,739.5 1687.3,740.5 1675,740.5 1674.7,740.2 			"/>
			<polygon id="polygon505" fill="#A4C439" points="1687.3,740.5 1679.5,746.3 1675,740.5 			"/>
			<polygon id="polygon507" fill="#A4C439" points="2599,717.7 2888.9,710.3 2888.9,726.3 1447.3,770.4 1447.3,746.3 1602.6,742.4 
				1675,740.5 1679.5,746.3 1687.3,740.5 1761.2,738.3 1827.5,736.6 1890.3,735.4 1980.7,732.8 2221.9,726.7 2449.1,721.5 			"/>
			<polygon id="polygon509" fill="#A4C439" points="1674.7,740.2 1603,742.1 1648.6,706.4 			"/>
			<polygon id="polygon511" fill="#A4C439" points="1603,742.1 1602.6,742.4 1602.6,742.1 			"/>
			<polygon id="polygon513" fill="#A4C439" points="1602.6,1792.8 1602.6,1950.5 965.3,1950.5 1473,1597.6 1602.6,1597.6 
				1602.6,1616.2 1602.6,1660.9 			"/>
			<polygon id="polygon515" fill="#A4C439" points="1574,712.8 1602.6,742.1 1533.1,744 			"/>
			<polygon id="polygon517" fill="#A4C439" points="1533.1,744 1532.8,744 1532.8,744 			"/>
			<polygon id="polygon519" fill="#A4C439" points="1532.8,744 1447.3,746.3 1491,711.5 			"/>
			<polygon id="polygon521" fill="#A4C439" points="1473,1512 1473,1597.6 1158.7,1616.2 1447.3,1512 			"/>
			<polygon id="polygon523" fill="#A4C439" points="1473,1597.6 965.3,1950.5 965.3,1715.3 965.3,1627.8 1068.6,1622 1158.7,1616.2 
				1158.7,1616.2 			"/>
			<polygon id="polygon525" fill="#A4C439" points="1447.3,1288.4 1447.3,1512 1158.7,1507.8 1158.7,1616.2 1068.6,1622 
				1068.6,1619.1 1065.7,1332.1 			"/>
			<polygon id="polygon527" fill="#A4C439" points="1447.3,1034.2 1447.3,1232.1 1081.5,1232.1 1064.7,1238.2 1062.8,1085.7 			"/>
			<polygon id="polygon529" fill="#A4C439" points="1447.3,800.3 1447.3,978.6 1068.6,978.6 1061.8,981.1 1059.9,808.1 
				1059.9,801.3 1068.6,800.3 			"/>
			<polygon id="polygon531" fill="#FAE700" points="1447.3,770.4 1447.3,800.3 1068.6,800.3 1059.9,801.3 1059.6,748.2 
				1068.6,746.3 1447.3,746.3 			"/>
			<polygon id="polygon533" fill="#A4C439" points="1447.3,678.1 1447.3,746.3 1068.6,746.3 1059.6,748.2 1058.6,674.9 1058,637.2 
				1057.7,568.4 1447.3,568.4 1447.3,674.9 1442.7,674.9 			"/>
			<polygon id="polygon535" fill="#A4C439" points="1447.3,674.9 1447.3,678.1 1442.7,674.9 			"/>
			<polygon id="polygon537" fill="#FAE700" points="1447.3,537.2 1447.3,568.4 1057.7,568.4 1057.3,537.2 			"/>
			<polygon id="polygon539" fill="#A4C439" points="1447.3,389.5 1447.3,537.2 1057.3,537.2 1055.7,406.2 1158.7,389.5 
				1176.4,453.9 1213,453.9 1193.1,389.5 1224.9,339.6 1288,316.5 1326.9,341.9 1377.8,195.8 			"/>
			<polygon id="polygon541" fill="#FAE700" points="1447.3,978.6 1062.5,1022.3 1061.8,981.1 1068.6,978.6 			"/>
			<polygon id="polygon543" fill="#A4C439" points="1447.3,1034.2 1062.8,1085.7 1062.5,1036.2 1066.3,1034.2 			"/>
			<polygon id="polygon545" fill="#FAE700" points="1447.3,1232.1 1065.4,1280.3 1064.7,1238.2 1081.5,1232.1 			"/>
			<polygon id="polygon547" fill="#A4C439" points="1447.3,1288.4 1065.7,1332.1 1065.4,1292.6 1079.2,1288.4 			"/>
			<polygon id="polygon549" fill="#A4C439" points="1447.3,1512 1158.7,1616.2 1158.7,1616.2 1158.7,1507.8 			"/>
			<path id="path551" fill="#A4C439" d="M1210.5,127l77.5,189.5l-34.7-21.6l-28.3,44.7l-66.3,24.5c0.3-60.5,2.9-207.8,6.8-216.8
				c4.8-11.6-7.1-54.4-7.1-54.4h52.4L1210.5,127L1210.5,127z"/>
			<polygon id="polygon553" fill="#A4C439" points="1288,316.5 1224.9,339.6 1253.9,294.6 			"/>
			<path id="path555" fill="#A4C439" d="M1224.9,339.6l-31.8,49.9l19.6,64.3h-37l-17.7-64.3c0,0,0-9.7,0.3-25.4L1224.9,339.6
				L1224.9,339.6z"/>
			<path id="path557" fill="#A4C439" d="M1152.2,366l6.4-2.3c0,15.8-0.3,25.4-0.3,25.4L1152.2,366L1152.2,366z"/>
			<path id="path559" fill="#A4C439" d="M1158.7,92.9c0,0,11.9,42.8,7.1,54.4c-3.9,9-6.4,156.4-6.8,216.8l-6.4,2.3l-39.2-152.8h15.8
				v-41.8L1158.7,92.9L1158.7,92.9z"/>
			<polygon id="polygon561" fill="#A4C439" points="1158.7,92.9 1128.8,171.1 1128.8,165.6 1128.8,118.3 			"/>
			<polygon id="polygon563" fill="#A4C439" points="1152.2,366 913.8,453.9 913.8,428.1 969.5,273 1004.2,380.8 1030.3,294.6 
				1059.9,354.8 1098.8,212.9 1113,212.9 			"/>
			<polygon id="polygon565" fill="#A4C439" points="1128.8,171.1 1128.8,212.9 1113,212.9 			"/>
			<polygon id="polygon567" fill="#FAE700" points="1079.2,1288.4 1065.4,1292.6 1065.4,1280.3 1447.3,1232.1 1447.3,1288.4 			"/>
			<polygon id="polygon569" fill="#FAE700" points="1062.5,1022.3 1447.3,978.6 1447.3,1034.2 1066.3,1034.2 1062.5,1036.2 			"/>
			<polygon id="polygon571" fill="#A4C439" points="1065.4,1292.6 1065.7,1332.1 883.9,1352.7 			"/>
			<polygon id="polygon573" fill="#FAE700" points="1065.4,1280.3 1065.4,1292.6 883.9,1352.7 883.9,1303.2 			"/>
			<polygon id="polygon575" fill="#FAE700" points="1064.7,1238.2 1065.4,1280.3 883.9,1303.2 			"/>
			<polygon id="polygon577" fill="#A4C439" points="1062.8,1085.7 1064.7,1238.2 883.9,1303.2 883.9,1109.5 			"/>
			<polygon id="polygon579" fill="#A4C439" points="1062.5,1036.2 1062.8,1085.7 883.9,1109.5 			"/>
			<polygon id="polygon581" fill="#FAE700" points="1062.5,1022.3 1062.5,1036.2 883.9,1109.5 883.9,1042.9 			"/>
			<polygon id="polygon583" fill="#FAE700" points="1061.8,981.1 1062.5,1022.3 883.9,1042.9 			"/>
			<path id="path585" fill="#A4C439" d="M1059.9,808.1l1.9,173.1l-177.9,62.1v-16.7C997.8,902,1056,808.1,1056,808.1L1059.9,808.1
				L1059.9,808.1z"/>
			<path id="path587" fill="#A4C439" d="M1059.6,748.2l0.3,53.4l-27.3,4.2l-81.4,12.5c17.4-21.2,32.5-40.5,45.7-57.9L1059.6,748.2
				L1059.6,748.2z"/>
			<path id="path589" fill="#A4C439" d="M1058.6,674.9l1,73.7l-62.1,11.9c40.5-53.1,60.5-85.6,60.5-85.6H1058.6L1058.6,674.9z"/>
			<path id="path591" fill="#A4C439" d="M1058,637.2l0.3,37.6h-0.6c0,0-20.3,32.8-60.5,85.6l-34.7,6.8
				C1025.8,689,1057.7,637.2,1058,637.2L1058,637.2L1058,637.2z"/>
			<path id="path593" fill="#A4C439" d="M1057.7,568.4l1,68.8h-0.3c0,0-32.2,51.8-95.2,130l-48.6,9.7V637.6l141.9-68.8L1057.7,568.4
				L1057.7,568.4z"/>
			<polygon id="polygon595" fill="#FAE700" points="1057.3,537.2 1057.7,568.4 1055.7,568.4 913.8,637.2 913.8,606 1055.7,537.2 			
				"/>
			<polygon id="polygon597" fill="#A4C439" points="1055.7,406.2 1057.3,537.2 1055.7,537.2 913.8,606 913.8,453.9 1008.4,453.9 			
				"/>
			<path id="path599" fill="#FAE700" d="M992.7,1352.7c73,1.6,63.1,58.6,63.1,58.6v204.9H913.8v-204.9
				C913.8,1411.6,919.6,1351.4,992.7,1352.7L992.7,1352.7z"/>
			<polygon id="polygon601" fill="#A4C439" points="913.8,453.9 1152.2,366 1158.7,389.5 1055.7,406.2 1008.4,453.9 			"/>
			<path id="path603" fill="#A4C439" d="M1032.6,805.5l27.3-4.2v6.4h-4.2c0,0-57.9,93.3-172.1,218.4v-37
				C955.7,909.7,1005.9,843.5,1032.6,805.5L1032.6,805.5z"/>
			<path id="path605" fill="#A4C439" d="M951.5,817.4l81.4-12.5c-27,38-76.6,104.2-148.6,183.1V894
				C909,867.9,931.5,841.5,951.5,817.4L951.5,817.4z"/>
			<path id="path607" fill="#A4C439" d="M962.4,767.2l34.7-6.8c-13.5,17.4-28.3,36.7-45.7,57.9l-36.7,5.1
				C932.2,803.2,947.9,784.3,962.4,767.2L962.4,767.2z"/>
			<path id="path609" fill="#A4C439" d="M883.9,1352.7l181.8-20.6l2.9,287.6v2.3l-103.3,6.4l-141.9-8.7l60.2-4.2v-262.5h0.3V1352.7z
				 M1055.7,1411.6c0,0,10-57.3-63.1-58.6c-73-1.6-78.8,58.6-78.8,58.6v204.9h141.9V1411.6L1055.7,1411.6z"/>
			<polygon id="polygon611" fill="#A4C439" points="965.3,1715.3 965.3,1950.5 823.4,1890.3 823.4,1718.8 			"/>
			<polygon id="polygon613" fill="#A4C439" points="965.3,1627.8 965.3,1715.3 843.1,1632.6 			"/>
			<polygon id="polygon615" fill="#A4C439" points="965.3,1627.8 843.1,1632.6 823.4,1619.1 			"/>
			<polygon id="polygon617" fill="#A4C439" points="965.3,1715.3 823.4,1718.8 823.4,1633.6 843.1,1632.6 			"/>
			<path id="path619" fill="#A4C439" d="M913.8,776.2l48.6-9.7c-14.5,17.4-30.2,36.7-47.6,56.3l-30.9,4.8L913.8,776.2L913.8,776.2z"
				/>
			<path id="path621" fill="#A4C439" d="M914.8,823.2l36.7-5.1c-19.6,24.1-42.5,49.9-67.2,77.5v-37.6
				C894.5,846,905.2,834.4,914.8,823.2L914.8,823.2z"/>
			<path id="path623" fill="#A4C439" d="M883.9,828l30.9-4.8c-9.7,10.9-20.3,22.5-30.9,34.7V828L883.9,828z"/>
			<polygon id="polygon625" fill="#A4C439" points="843.1,1632.6 823.4,1633.6 823.4,1619.1 			"/>
			<polygon id="polygon627" fill="#A4C439" points="745.9,1636.5 823.4,1633.6 823.4,1718.8 101.2,1734.6 129.8,1660.9 177.1,1659 
				221.2,1657.1 318,1653.2 367.6,1651.3 447.7,1648.4 501.7,1646.1 594.4,1642.9 618.2,1641.6 718.2,1637.8 			"/>
		</g>
		<g id="g629">
			<polyline id="polyline631" fill="none" stroke="#1C191C" stroke-width="5" points="823.4,1718.8 823.4,1890.3 965.3,1950.5 
				1602.6,1950.5 1602.6,1792.8 1602.6,1660.9 1602.6,1616.2 			"/>
			<polyline id="polyline633" fill="none" stroke="#1C191C" stroke-width="5" points="883.9,828 883.9,857.9 883.9,894.9 
				883.9,988.5 883.9,1026.2 883.9,1042.9 883.9,1109.5 883.9,1303.2 883.9,1352.7 883.9,1614.9 823.4,1619.1 823.4,1633.6 			"/>
			<line id="line635" fill="none" stroke="#1C191C" stroke-width="5" x1="913.8" y1="637.2" x2="913.8" y2="776.2"/>
			<polyline id="polyline637" fill="none" stroke="#1C191C" stroke-width="5" points="1113,212.9 1098.8,212.9 1059.9,354.8 
				1030.3,294.6 1004.2,380.8 969.5,273 913.8,428.1 913.8,453.9 913.8,606 			"/>
			<polyline id="polyline639" fill="none" stroke="#1C191C" stroke-width="5" points="1447.3,537.2 1447.3,389.5 1377.8,195.8 
				1326.9,341.9 1288,316.5 1210.5,127 1210.5,92.9 1158.7,92.9 1128.8,118.3 1128.8,165.6 1128.8,171.1 			"/>
			<line id="line641" fill="none" stroke="#1C191C" stroke-width="5" x1="1447.3" y1="674.9" x2="1447.3" y2="568.4"/>
			<line id="line643" fill="none" stroke="#1C191C" stroke-width="5" x1="1447.3" y1="746.3" x2="1447.3" y2="678.1"/>
			<polyline id="polyline645" fill="none" stroke="#1C191C" stroke-width="5" points="1602.6,1597.6 1473,1597.6 1473,1512 
				1447.3,1512 1447.3,1288.4 1447.3,1232.1 1447.3,1034.2 1447.3,978.6 1447.3,800.3 			"/>
			<line id="line647" fill="none" stroke="#1C191C" stroke-width="5" x1="1158.7" y1="1616.2" x2="1473" y2="1597.6"/>
			<polyline id="polyline649" fill="none" stroke="#1C191C" stroke-width="5" points="965.3,1950.5 965.3,1715.3 965.3,1627.8 
				1068.6,1622 1158.7,1616.2 			"/>
			<polyline id="polyline651" fill="none" stroke="#1C191C" stroke-width="5" points="823.4,1619.1 965.3,1627.8 843.1,1632.6 
				823.4,1633.6 745.9,1636.5 718.2,1637.8 618.2,1641.6 594.4,1642.9 501.7,1646.1 447.7,1648.4 367.6,1651.3 318,1653.2 
				221.2,1657.1 177.1,1659 129.8,1660.9 101.2,1734.6 823.4,1718.8 965.3,1715.3 			"/>
			<polyline id="polyline653" fill="none" stroke="#1C191C" stroke-width="5" points="913.8,453.9 1008.4,453.9 1055.7,406.2 
				1158.7,389.5 1176.4,453.9 1213,453.9 1193.1,389.5 1224.9,339.6 1253.9,294.6 1288,316.5 			"/>
			<polyline id="polyline655" fill="none" stroke="#1C191C" stroke-width="5" points="1158.7,1616.2 1158.7,1507.8 1447.3,1512 			
				"/>
			<polyline id="polyline657" fill="none" stroke="#1C191C" stroke-width="5" points="883.9,1352.7 1065.4,1292.6 1079.2,1288.4 
				1447.3,1288.4 			"/>
			<polyline id="polyline659" fill="none" stroke="#1C191C" stroke-width="5" points="883.9,1303.2 1064.7,1238.2 1081.5,1232.1 
				1447.3,1232.1 			"/>
			<polyline id="polyline661" fill="none" stroke="#1C191C" stroke-width="5" points="883.9,1109.5 1062.5,1036.2 1066.3,1034.2 
				1447.3,1034.2 			"/>
			<polyline id="polyline663" fill="none" stroke="#1C191C" stroke-width="5" points="883.9,1042.9 1061.8,981.1 1068.6,978.6 
				1447.3,978.6 			"/>
			<polyline id="polyline665" fill="none" stroke="#1C191C" stroke-width="5" points="1675,740.5 1602.6,742.4 1447.3,746.3 
				1068.6,746.3 1059.6,748.2 997.5,760.4 962.4,767.2 913.8,776.2 883.9,828 914.8,823.2 951.5,817.4 1032.6,805.5 1059.9,801.3 
				1068.6,800.3 1447.3,800.3 2872.1,762.7 			"/>
			<polyline id="polyline667" fill="none" stroke="#1C191C" stroke-width="5" points="2888.9,710.3 2599,717.7 2449.1,721.5 
				2221.9,726.7 1980.7,732.8 1890.3,735.4 1827.5,736.6 1761.2,738.3 1687.3,740.5 			"/>
			<line id="line669" fill="none" stroke="#1C191C" stroke-width="5" x1="1057.3" y1="537.2" x2="1055.7" y2="406.2"/>
			<polyline id="polyline671" fill="none" stroke="#1C191C" stroke-width="5" points="1068.6,1619.1 1065.7,1332.1 1065.4,1292.6 
				1065.4,1280.3 1064.7,1238.2 1062.8,1085.7 1062.5,1036.2 1062.5,1022.3 1061.8,981.1 1059.9,808.1 1059.9,801.3 1059.6,748.2 
				1058.6,674.9 1058,637.2 1057.7,568.4 			"/>
			<polyline id="polyline673" fill="none" stroke="#1C191C" stroke-width="5" points="913.8,637.2 1055.7,568.4 1057.7,568.4 
				1447.3,568.4 1447.3,537.2 1057.3,537.2 1055.7,537.2 913.8,606 			"/>
			<path id="path675" fill="none" stroke="#1C191C" stroke-width="5" d="M913.8,1616.2v-204.9c0,0,5.8-60.2,78.8-58.6
				c73,1.6,63.1,58.6,63.1,58.6v204.9"/>
			<path id="path677" fill="none" stroke="#1C191C" stroke-width="5" d="M1113,212.9l39.6,152.8l5.8,23.2c0,0,0-9.7,0.3-25.4
				c0.3-60.5,2.9-207.8,6.8-216.8c4.8-11.6-7.1-54.4-7.1-54.4"/>
			<polyline id="polyline679" fill="none" stroke="#1C191C" stroke-width="5" points="2798.5,1588.5 2798.5,1631.3 2798.5,1721.7 
				2798.5,1847.2 2941,1907.7 3578,1907.7 3578,1653.2 			"/>
			<polyline id="polyline681" fill="none" stroke="#1C191C" stroke-width="5" points="2859.3,784.9 2859.3,999.8 2859.3,1066.7 
				2859.3,1260.4 2859.3,1309.6 2859.3,1572.1 2798.5,1576.3 			"/>
			<polyline id="polyline683" fill="none" stroke="#1C191C" stroke-width="5" points="2888.9,707 2888.9,710.3 2888.9,726.3 
				2888.9,733.4 			"/>
			<line id="line685" fill="none" stroke="#1C191C" stroke-width="5" x1="2888.9" y1="661.7" x2="2888.9" y2="676.2"/>
			<line id="line687" fill="none" stroke="#1C191C" stroke-width="5" x1="2888.9" y1="594.4" x2="2888.9" y2="640.4"/>
			<polyline id="polyline689" fill="none" stroke="#1C191C" stroke-width="5" points="3088.6,169.8 3074.2,169.8 3035.2,312 
				3005.3,251.5 2979.3,337.7 2945.2,230.3 2888.9,385 2888.9,410.7 2888.9,562.6 			"/>
			<polyline id="polyline691" fill="none" stroke="#1C191C" stroke-width="5" points="3422.3,493.7 3422.3,346.1 3353.1,153 
				3301.9,299.1 3263.7,273 3186.1,84.2 3186.1,49.5 3133.7,49.5 3103.8,75.5 3103.8,122.5 3103.8,128 			"/>
			<polyline id="polyline693" fill="none" stroke="#1C191C" stroke-width="5" points="3422.3,703.2 3422.3,625.7 3422.3,525.6 			
				"/>
			<polyline id="polyline695" fill="none" stroke="#1C191C" stroke-width="5" points="3578,1573.4 3578,1554.8 3448.3,1554.8 
				3448.3,1468.5 3422.3,1468.5 3422.3,1245 3422.3,1189.3 3422.3,991.1 3422.3,935.8 3422.3,758.8 3422.3,756.9 			"/>
			<polyline id="polyline697" fill="none" stroke="#1C191C" stroke-width="5" points="2941,1907.7 2941,1750 2941,1627.8 2941,1585 
				3044.3,1578.9 3133.7,1573.4 3448.3,1554.8 			"/>
			<polyline id="polyline699" fill="none" stroke="#1C191C" stroke-width="5" points="1602.6,1616.2 2798.5,1588.5 2941,1585 
				2798.5,1576.3 1602.6,1597.6 			"/>
			<polyline id="polyline701" fill="none" stroke="#1C191C" stroke-width="5" points="2888.9,410.7 2983.8,410.7 3030.7,363.5 
				3133.7,346.1 3151.7,410.7 3188.4,410.7 3168.8,346.1 3200.6,296.2 3228.9,251.5 3263.7,273 			"/>
			<polyline id="polyline703" fill="none" stroke="#1C191C" stroke-width="5" points="3133.7,1573.4 3133.7,1464.4 3422.3,1468.5 
							"/>
			<polyline id="polyline705" fill="none" stroke="#1C191C" stroke-width="5" points="2859.3,1309.6 3040.4,1249.8 3054.9,1245 
				3422.3,1245 			"/>
			<polyline id="polyline707" fill="none" stroke="#1C191C" stroke-width="5" points="2859.3,1260.4 3040.1,1195.1 3056.8,1189.3 
				3422.3,1189.3 			"/>
			<polyline id="polyline709" fill="none" stroke="#1C191C" stroke-width="5" points="2859.3,1066.7 3037.5,993.1 3042,991.1 
				3422.3,991.1 			"/>
			<polyline id="polyline711" fill="none" stroke="#1C191C" stroke-width="5" points="2859.3,999.8 3037.2,937.7 3043.9,935.8 
				3422.3,935.8 			"/>
			<polyline id="polyline713" fill="none" stroke="#1C191C" stroke-width="5" points="3422.3,703.2 3043.9,703.2 3034.6,705.1 
				3026.6,707 3025.9,707 2934.2,724.7 2888.9,733.4 2872.1,762.7 2859.3,784.9 3035.2,758.5 3043.9,756.9 3422.3,756.9 			"/>
			<line id="line715" fill="none" stroke="#1C191C" stroke-width="5" x1="3032.3" y1="493.7" x2="3030.7" y2="363.5"/>
			<polyline id="polyline717" fill="none" stroke="#1C191C" stroke-width="5" points="3043.9,1576.3 3041,1288.7 3040.4,1249.8 
				3040.4,1237.6 3040.1,1195.1 3038.1,1042.6 3037.5,993.1 3037.5,979.5 3037.2,937.7 3035.2,758.5 3034.6,721.5 3034.6,705.1 
				3034.6,703.2 3033.6,637.2 3032.7,525.6 			"/>
			<polyline id="polyline719" fill="none" stroke="#1C191C" stroke-width="5" points="2888.9,594.4 3030.7,525.6 3032.7,525.6 
				3422.3,525.6 3422.3,493.7 3032.3,493.7 3030.7,493.7 2888.9,562.6 			"/>
			<path id="path721" fill="none" stroke="#1C191C" stroke-width="5" d="M2888.9,1573.4v-204.9c0,0,5.8-60.2,78.8-58.6
				c73,1.6,63.1,58.6,63.1,58.6v204.9"/>
			<path id="path723" fill="none" stroke="#1C191C" stroke-width="5" d="M3088.6,169.8l39.2,152.8l5.8,23.2c0,0,0-9.7,0.3-25.4
				c0.3-60.2,2.9-207.8,6.8-216.8c4.8-11.6-7.1-54.4-7.1-54.4"/>
			<polyline id="polyline725" fill="none" stroke="#1C191C" stroke-width="5" points="1602.6,1660.9 2798.5,1631.3 2941,1627.8 			
				"/>
			<path id="path727" fill="none" stroke="#1C191C" stroke-width="5" d="M1602.6,1792.8c0,0,433.7-204,1196.1-71.1
				c46,8.4,93.3,17.4,141.9,28"/>
			<path id="path729" fill="none" stroke="#1C191C" stroke-width="5" d="M1058,637.2c0,0-32.2,51.8-95.2,130
				c-14.5,17.4-30.2,36.7-47.6,56.3c-9.7,10.9-20.3,22.5-30.9,34.7c-152.8,166.3-405,387-752.5,516.4"/>
			<path id="path731" fill="none" stroke="#1C191C" stroke-width="5" d="M718.2,1057.1c-31.2,27.3-64.7,54.7-100.1,82
				c-8.7,6.8-17.1,12.9-26.1,19.3c-29.3,20.9-59.2,42.8-90.7,64c-17.4,11.6-35.7,23.2-53.7,34.1c-26.1,15.8-52.4,31.5-80.4,46.6
				c-16.4,9-32.8,17.7-49.5,26.4c-31.2,16.1-63.4,31.2-96.5,45.7c-14.5,6.4-29.3,12.5-44.4,18.7c-15.1,6.1-30.2,11.9-45.7,17.7"/>
			<path id="path733" fill="none" stroke="#1C191C" stroke-width="5" d="M1058,674.9c0,0-20.3,32.8-60.5,85.6
				c-13.5,17.4-28.3,36.7-45.7,57.9c-19.6,24.1-42.5,49.9-67.2,77.5c-39.2,42.8-85.3,89.4-137.4,136.7c-9,8.4-18.3,16.7-28,25.1"/>
			<path id="path735" fill="none" stroke="#1C191C" stroke-width="5" d="M1055.7,770.7c0,0-7.7,12.5-23.5,35.1
				c-27,38-76.6,104.2-148.6,183.1c-39.2,42.8-84.9,89.8-137.4,137.1c-9,8.4-18.3,16.7-28,25.1c-31.5,27-64.3,54.7-100.1,82.4
				c-8.4,6.4-16.7,12.9-25.4,19.3c-29,21.6-68.2,48.9-91.4,64.3c-13.2,8.7-35.1,23.2-53.4,34.1c-26.1,15.8-52.4,31.5-80.4,47.3
				c-16.4,9-32.8,17.7-49.5,26.4c-31.2,16.1-63.4,31.2-96.5,45.7c-14.5,6.4-29.3,12.5-44.4,18.7c-15.8,6.4-31.8,12.5-47.9,18.7"/>
			<path id="path737" fill="none" stroke="#1C191C" stroke-width="5" d="M1055.7,808.1c0,0-57.9,93.3-172.1,218.4
				c-39.2,42.8-84.9,89.8-137.4,137.1c-9,8.4-18.3,16.7-28,25.1c-31.5,27-64.3,55.3-100.1,82.7c-8.4,6.4-16.7,13.2-25.1,19.3
				c-29.3,22.2-68.2,48.9-91.4,64.3c-13.2,8.7-35.1,23.2-53.4,34.1c-26.1,15.8-52.4,31.5-80.4,47.3c-16.4,9-32.8,17.7-49.5,26.4
				c-31.2,16.1-63.4,31.2-96.5,45.7c-14.5,6.4-29.3,12.5-44.4,18.7c-15.8,6.4-31.8,12.5-47.9,18.7"/>
			<path id="polyline739" fill="none" stroke="#1C191C" stroke-width="5" d="M221.2,1374.9c0,23.8,0,95.2,0,95.2v37.6v149.6v3.9"/>
			<polyline id="polyline741" fill="none" stroke="#1C191C" stroke-width="5" points="177.1,1393.6 177.1,1488.8 177.1,1525.8 
				177.1,1659 177.1,1660.9 			"/>
			<path id="polyline743" fill="none" stroke="#1C191C" stroke-width="5" d="M318,1329.2c0,23.8,0,71.4,0,95.2c0,9.3,0,28.3,0,37.6
				c0,47.9,0,191.4,0,191.4"/>
			<path id="polyline745" fill="none" stroke="#1C191C" stroke-width="5" d="M367.6,1303.2c0,23.8,0,71.1,0,94.6
				c0,9.3,0,28.3,0,37.6c0,54,0,215.9,0,215.9"/>
			<path id="polyline747" fill="none" stroke="#1C191C" stroke-width="5" d="M447.7,1256.5c0,23.8,0,71.1,0,94.6c0,9.3,0,27.7,0,37
				c0,65,0,260.3,0,260.3v2.9"/>
			<path id="polyline749" fill="none" stroke="#1C191C" stroke-width="5" d="M501.7,1222.4c0,23.5,0,71.1,0,94.6c0,9.3,0,27.7,0,37
				c0,72.4,0,289.9,0,289.9"/>
			<path id="polyline751" fill="none" stroke="#1C191C" stroke-width="5" d="M592.1,1158.4c0,23.5,0.3,70.8,0.3,94.3
				c0,9.3,0.3,27.7,0.3,37c0.6,88.2,1.6,352.9,1.6,352.9v1.6"/>
			<path id="polyline753" fill="none" stroke="#1C191C" stroke-width="5" d="M618.2,1139.1c0,23.5,0,70.8,0,94.3
				c0,9.3,0,28.3,0,37.6c0,92.7,0,370.9,0,370.9"/>
			<path id="polyline755" fill="none" stroke="#1C191C" stroke-width="5" d="M718.2,1056.4v0.3c0,23.5,0,70.8,0,94.3
				c0,9.3,0,27.7,0,37c0,112.3,0,449.8,0,449.8"/>
			<path id="polyline757" fill="none" stroke="#1C191C" stroke-width="5" d="M745.9,1637.8v-1.6c0,0,0-354.9,0-473.2
				c0-9.3,0-28,0-37.6c0-23.5,0-93.9,0-93.9"/>
			<path id="path759" fill="none" stroke="#1C191C" stroke-width="5" d="M3423.6,588c0,0,326.5,503.5,942,717.4"/>
			<path id="path761" fill="none" stroke="#1C191C" stroke-width="5" d="M3900.3,1099.9c29.3,21.2,60.2,41.8,92.3,62.1
				c17.7,10.9,35.7,22.2,54.4,33.1c26.4,15.4,53.4,30.2,81.4,44.7c16.4,8.7,33.1,16.7,49.9,25.1c59.5,29,122.3,55.3,188.5,77.9"/>
			<path id="path763" fill="none" stroke="#1C191C" stroke-width="5" d="M3744,976.3c9,8.4,18.7,15.8,28.3,24.1
				c31.8,27,66,53.7,102,80.4c8.7,6.4,17.4,12.5,26.1,18.7"/>
			<path id="path765" fill="none" stroke="#1C191C" stroke-width="5" d="M3424.8,625.7c0,0,108.7,167.9,319.5,350.7"/>
			<path id="path767" fill="none" stroke="#1C191C" stroke-width="5" d="M3429,721.5c0,0,108.1,167,316.9,349.1
				c9,8.4,18.7,16.4,28.3,24.5c31.8,27,66,53.7,102,80.4c8.7,6.4,16.7,12.5,25.4,18.7c29.3,21.2,60.2,41.8,92.3,62.4
				c17.7,10.9,36,22.2,54.4,33.1c26.4,15.4,53.4,30.6,81.4,45c16.4,8.7,33.1,16.7,49.9,25.4c60.2,29.3,123.5,55.7,191.1,79.5"/>
			<path id="path769" fill="none" stroke="#1C191C" stroke-width="5" d="M3429.3,758.8c0,0,108.1,167,316.9,348.7
				c9,8.4,18.7,16.4,28.3,24.5c31.9,27,66,53.7,102,80.4c8.7,6.4,16.7,12.5,25.4,18.7c29.9,21.2,60.5,42.5,92.7,62.4
				c17.7,10.9,35.7,22.2,54.4,33.1c26.4,15.4,53.4,30.6,81.4,45c16.4,8.7,33.1,16.7,49.9,25.4c60.2,29,123.5,55.7,191.1,79.5"/>
			<path id="polyline771" fill="none" stroke="#1C191C" stroke-width="5" d="M4178.3,1264.9c0,23.8,1.9,95.2,1.9,95.2l0.3,37
				l3.9,185.6"/>
			<path id="polyline773" fill="none" stroke="#1C191C" stroke-width="5" d="M4127.8,1239.8c0,23.8,1.9,71.1,2.3,94.6
				c0.3,9.3,0.3,27.7,0.3,37c1,52.8,4.2,210.7,4.2,210.7"/>
			<path id="polyline775" fill="none" stroke="#1C191C" stroke-width="5" d="M4046.4,1194.4l2.3,94.6c0,0,0.3,28.3,0.3,37.6
				c1,63.4,5.1,253.8,5.1,253.8"/>
			<polyline id="polyline777" fill="none" stroke="#1C191C" stroke-width="5" points="3992,1162 3994.6,1256.2 3994.9,1293.5 
				4001.4,1579.9 			"/>
			<polyline id="polyline779" fill="none" stroke="#1C191C" stroke-width="5" points="3900.3,1099.9 3900.3,1099.9 3901.6,1193.5 
				3902.3,1231.1 3908.1,1578.3 			"/>
			<polyline id="polyline781" fill="none" stroke="#1C191C" stroke-width="5" points="3874.3,1080.6 3876.2,1175.5 3876.9,1212.1 
				3884.6,1578.3 			"/>
			<polyline id="polyline783" fill="none" stroke="#1C191C" stroke-width="5" points="3772.3,1000.8 3774.2,1094.4 3775.2,1132 
				3784.5,1577 			"/>
			<polyline id="polyline785" fill="none" stroke="#1C191C" stroke-width="5" points="3756.5,1576.3 3746.6,1107.6 3745.9,1070.6 
				3744,976.3 3744,976.3 			"/>
			<polyline id="polyline787" fill="none" stroke="#1C191C" stroke-width="5" points="3578,1573.4 3756.5,1576.3 3784.5,1577 
				3884.6,1578.3 3908.1,1578.3 4001.4,1579.9 4054.8,1580.8 4134.9,1582.1 4184.4,1582.8 4365.9,1585.7 4397.7,1660.9 3578,1653.2 
							"/>
			<polyline id="polyline789" fill="none" stroke="#1C191C" stroke-width="5" points="1696.9,668.4 1447.3,674.9 1442.7,674.9 
				1447.3,678.1 1491,711.5 1532.8,744 1532.8,744 1533.1,744 1574,712.8 1623.6,674.9 1648.6,706.4 1674.7,740.2 1675,740.5 
				1679.5,746.3 1687.3,740.5 1687.6,739.5 1731,705.4 1769.9,674.9 1795.3,702.5 1826.6,736.3 1827.5,736.6 1828.2,736.3 
				1861.3,704.1 1903.1,663.6 1941.1,697.4 1979.4,731.8 1980.7,732.8 1981.3,731.8 2021.8,691.9 2053.7,660.1 2096.5,690 
				2140.5,721.5 2176.6,692.6 2221.9,656.5 2260.5,691 2294.7,721.5 2323.9,686.1 2351.6,653 2399.9,686.8 2445.9,718.9 
				2449.1,721.5 2451.3,718.9 2497,682.3 2533.4,653 2565.2,684.2 2596.4,715.1 2599,717.7 2601.2,715.1 2640.5,677.1 2672.7,645.9 
				2705.2,674.9 2737,703.2 2767.3,674.9 2798.5,645.9 2827.7,673.3 2859.3,703.2 2888.9,676.2 2897.5,668.4 2929.7,639.5 
				2983.1,672.3 3034.6,703.2 			"/>
			<polyline id="polyline791" fill="none" stroke="#1C191C" stroke-width="5" points="1696.9,668.4 1731,705.4 1760.6,737.6 
				1761.2,738.3 1761.6,737.6 1795.3,702.5 1827.5,668.4 1861.3,704.1 1889.6,734.4 1890.3,735.4 1891.5,734.4 1941.1,697.4 
				1989,661.7 1989,661.7 1989,661.7 2021.8,691.9 2053.7,721.5 2096.5,690 2134.8,661.7 2176.6,692.6 2220,725.1 2221.9,726.7 
				2223.9,725.1 2260.5,691 2298.8,654.6 2323.9,686.1 2351.6,721.5 2399.9,686.8 2449.1,651.1 2497,682.3 2533.4,707 2565.2,684.2 
				2611.5,651.1 2640.5,677.1 2672.7,707 2705.2,674.9 2737,644.3 2767.3,674.9 2798.5,707 2827.7,673.3 2855.4,641.4 2859.3,637.2 
				2864.1,641.4 2888.9,661.7 2897.5,668.4 2941,703.2 2983.1,672.3 3030.7,637.2 2888.9,640.4 2864.1,641.4 2855.4,641.4 
				2737,644.3 2672.7,645.9 2449.1,651.1 2351.6,653 2298.8,654.6 2221.9,656.5 2053.7,660.1 1989,661.7 1989,661.7 1903.1,663.6 
				1696.9,668.4 			"/>
			<line id="line793" fill="none" stroke="#1C191C" stroke-width="5" x1="1696.9" y1="668.4" x2="1696.9" y2="668.4"/>
			<polyline id="polyline795" fill="none" stroke="#1C191C" stroke-width="5" points="1447.3,746.3 1491,711.5 1537.7,674.9 
				1574,712.8 1602.6,742.1 1602.6,742.4 1603,742.1 1648.6,706.4 1696.9,668.4 			"/>
			<polyline id="polyline797" fill="none" stroke="#1C191C" stroke-width="5" points="1442.7,770.7 1447.3,770.4 2888.9,726.3 
				2934.2,724.7 3026.6,721.8 3034.6,721.5 			"/>
		</g>
	</g>
</g>
</svg>
